<svg xmlns="http://www.w3.org/2000/svg" width="31" height="31" viewBox="0 0 31 31">
  <g id="FaceBook_Icon_-_Blue" data-name="FaceBook Icon - Blue" transform="translate(0.501 0.5)">
    <path id="Subtraction_1" data-name="Subtraction 1" d="M15,30a15,15,0,1,1,10.607-4.393A15.016,15.016,0,0,1,15,30ZM9.913,13.062v3.414h2.3v7.047A11.957,11.957,0,0,0,15,23.85a11.706,11.706,0,0,0,1.26-.067V16.476h3.019l.628-3.414H16.26V11.856c0-1.795.712-2.494,2.539-2.494a12.8,12.8,0,0,1,1.292.045v-3.1a12.3,12.3,0,0,0-2.426-.278c-3.719,0-5.451,1.767-5.451,5.562v1.467Z" transform="translate(-0.001 0)" fill="#00558a" stroke="rgba(0,0,0,0)" stroke-width="1"/>
  </g>
</svg>
