<svg xmlns="http://www.w3.org/2000/svg" width="31" height="31" viewBox="0 0 31 31">
  <g id="Instagram_Icon_-_Red" data-name="Instagram Icon - Red" transform="translate(0.502 0.5)">
    <path id="Subtraction_2" data-name="Subtraction 2" d="M15,30a15,15,0,1,1,10.607-4.393A14.9,14.9,0,0,1,15,30ZM15,5.631c-1.668,0-3.148.026-3.863.067a5.543,5.543,0,0,0-3.929,1.51,5.651,5.651,0,0,0-1.515,3.923c-.085,1.556-.085,6.182,0,7.734a5.508,5.508,0,0,0,1.515,3.928,5.557,5.557,0,0,0,3.929,1.51c.715.042,2.194.067,3.863.067s3.149-.026,3.866-.067a5.5,5.5,0,0,0,3.926-1.51A5.533,5.533,0,0,0,24.3,18.865c.089-1.551.089-6.174,0-7.729a5.5,5.5,0,0,0-1.512-3.923A5.551,5.551,0,0,0,18.866,5.7C18.149,5.656,16.668,5.631,15,5.631Zm-1.66,17.06a13.272,13.272,0,0,1-3.863-.384A3.171,3.171,0,0,1,7.7,20.523a16.756,16.756,0,0,1-.384-4.841V15.59c0-.218,0-.417,0-.59,0-.116,0-.244,0-.381v-.268A17,17,0,0,1,7.7,9.477,3.139,3.139,0,0,1,9.478,7.7a13.234,13.234,0,0,1,3.876-.389c.353,0,.687,0,.983.006.249,0,.473,0,.664,0s.41,0,.652,0c.289,0,.617-.006.958-.006a13.467,13.467,0,0,1,3.914.388,3.171,3.171,0,0,1,1.784,1.78,17.085,17.085,0,0,1,.381,4.873v.269c0,.137,0,.265,0,.381s0,.244,0,.381v.264a17.089,17.089,0,0,1-.381,4.878,3.177,3.177,0,0,1-1.784,1.784,13.268,13.268,0,0,1-3.861.384c-.353,0-.691,0-.992-.006-.249,0-.475,0-.671,0s-.416,0-.664,0C14.033,22.688,13.695,22.691,13.34,22.691ZM15,10.2A4.8,4.8,0,1,0,19.8,15,4.809,4.809,0,0,0,15,10.2ZM20,8.88A1.121,1.121,0,1,0,21.122,10,1.121,1.121,0,0,0,20,8.88Zm-5,9.244A3.123,3.123,0,1,1,18.123,15,3.127,3.127,0,0,1,15,18.123Z" transform="translate(-0.002 -0.001)" fill="#ee2b37" stroke="rgba(0,0,0,0)" stroke-width="1"/>
  </g>
</svg>
