<svg xmlns="http://www.w3.org/2000/svg" width="31.003" height="31" viewBox="0 0 31.003 31">
  <g id="LinkedIn_Icon_-_Red" data-name="LinkedIn Icon - Red" transform="translate(0.501 0.5)">
    <path id="Subtraction_3" data-name="Subtraction 3" d="M15,30a15,15,0,1,1,10.61-4.393A15.016,15.016,0,0,1,15,30Zm2.959-15.029c1.721,0,1.721,1.635,1.721,2.828v5.193h3.311l0-5.864c0-2.636-.482-5.076-3.971-5.076a3.52,3.52,0,0,0-3.141,1.725h-.044V12.322h-3.18v10.67h3.313V17.709C15.973,16.355,16.208,14.971,17.959,14.971ZM7.271,12.322h0v10.67h3.316V12.322ZM8.93,7.008a1.93,1.93,0,1,0,1.919,1.923A1.922,1.922,0,0,0,8.93,7.008Z" transform="translate(-0.001 0)" fill="#ee2b37" stroke="rgba(0,0,0,0)" stroke-width="1"/>
  </g>
</svg>
