<svg xmlns="http://www.w3.org/2000/svg" width="30.999" height="31" viewBox="0 0 30.999 31">
  <g id="TikTok_Icon_-_Red" data-name="TikTok Icon - Red" transform="translate(0.498 0.499)">
    <path id="Subtraction_6" data-name="Subtraction 6" d="M15,30A15,15,0,0,1,4.393,4.394,15,15,0,0,1,25.605,25.606,14.9,14.9,0,0,1,15,30ZM12.924,12.662a5.49,5.49,0,1,0,5.487,5.492V12.118a7.052,7.052,0,0,0,4.125,1.323h.022v-2.95a4.085,4.085,0,0,1-2.262-.68,4.149,4.149,0,0,1-1.821-2.705,4.563,4.563,0,0,1-.064-.752H15.444v11.8a2.521,2.521,0,1,1-1.764-2.406V12.711A5.989,5.989,0,0,0,12.924,12.662Z" transform="translate(0.002 0.001)" fill="#ee2b37" stroke="rgba(0,0,0,0)" stroke-width="1"/>
  </g>
</svg>
