<svg xmlns="http://www.w3.org/2000/svg" width="31" height="31" viewBox="0 0 31 31">
  <g id="X_Icon_-_Blue" data-name="X Icon - Blue" transform="translate(0.5 0.499)">
    <path id="Subtraction_5" data-name="Subtraction 5" d="M15,30A15,15,0,0,1,4.393,4.392,15,15,0,0,1,25.607,25.606,14.9,14.9,0,0,1,15,30Zm-.819-12.8h0l3.924,5.128h5.007l-6.4-8.458,5.44-6.214H19.666l-4.1,4.686L12.022,7.662H6.883l6.135,8.024L7.206,22.334H9.7l4.485-5.128Zm5.988,3.641h-1.38l-9-11.773h1.482l8.9,11.771Z" transform="translate(0 0.001)" fill="#00558a" stroke="rgba(0,0,0,0)" stroke-width="1"/>
  </g>
</svg>
