<svg xmlns="http://www.w3.org/2000/svg" width="31" height="31" viewBox="0 0 31 31">
  <g id="Youtube_Icon_-_Red" data-name="Youtube Icon - Red" transform="translate(0.498 0.498)">
    <path id="Subtraction_4" data-name="Subtraction 4" d="M15,30A15,15,0,0,1,15,0a15,15,0,0,1,10.61,25.606A14.9,14.9,0,0,1,15,30ZM15,7.488c-.066,0-6.7.005-8.35.451a2.679,2.679,0,0,0-1.891,1.9,28.388,28.388,0,0,0-.447,5.177,28.388,28.388,0,0,0,.447,5.177,2.638,2.638,0,0,0,1.891,1.869c1.646.446,8.284.451,8.35.451s6.7-.005,8.35-.451a2.674,2.674,0,0,0,1.891-1.869,28.53,28.53,0,0,0,.442-5.177,28.531,28.531,0,0,0-.442-5.177,2.678,2.678,0,0,0-1.891-1.9C21.7,7.493,15.063,7.488,15,7.488ZM12.813,18.193V11.838L18.4,15.016l-5.583,3.176Z" transform="translate(0.002 0.002)" fill="#ee2b37" stroke="rgba(0,0,0,0)" stroke-width="1"/>
  </g>
</svg>
