<svg id="Agendas_Minutes_Icon" data-name="Agendas &amp; Minutes Icon" xmlns="http://www.w3.org/2000/svg" width="47.084" height="50.83" viewBox="0 0 47.084 50.83">
  <path id="Path_159" data-name="Path 159" d="M447.081,16.873c0-.024,0-.048,0-.072a2.126,2.126,0,0,0-.033-.266v0a2.067,2.067,0,0,0-.073-.263c-.008-.022-.016-.044-.024-.066a2.089,2.089,0,0,0-.107-.24l-.006-.013a2.092,2.092,0,0,0-.148-.233l-.042-.056a2.133,2.133,0,0,0-.186-.214L431.476.62a2.128,2.128,0,0,0-.216-.184L431.2.4a2.141,2.141,0,0,0-.235-.147l-.012-.006a2.157,2.157,0,0,0-.243-.106l-.064-.023A2.155,2.155,0,0,0,430.1.007l-.067,0c-.025,0-.05,0-.075,0H410.7A10.658,10.658,0,0,0,400,10.59V40.24A10.658,10.658,0,0,0,410.7,50.83h25.682a10.658,10.658,0,0,0,10.7-10.589v-23.3c0-.024,0-.047,0-.071M432.1,7.231l7.674,7.594h-3.394a4.263,4.263,0,0,1-4.28-4.236Zm4.28,39.363H410.7a6.4,6.4,0,0,1-6.421-6.354V10.59A6.4,6.4,0,0,1,410.7,4.236h17.122V10.59a8.526,8.526,0,0,0,8.561,8.471H442.8V40.24a6.4,6.4,0,0,1-6.421,6.354" transform="translate(-400)" fill="#fff"/>
  <path id="Path_160" data-name="Path 160" d="M442.14,75.486h6.421a2.118,2.118,0,1,0,0-4.236H442.14a2.118,2.118,0,1,0,0,4.236" transform="translate(-429.299 -52.189)" fill="#fff"/>
  <path id="Path_161" data-name="Path 161" d="M461.4,118.75H442.14a2.118,2.118,0,1,0,0,4.236H461.4a2.118,2.118,0,1,0,0-4.236" transform="translate(-429.299 -86.981)" fill="#fff"/>
</svg>
