<svg id="Bethel_University_Logo" data-name="Bethel University Logo" xmlns="http://www.w3.org/2000/svg" width="95.073" height="38.226" viewBox="0 0 95.073 38.226">
  <path id="Path_363" data-name="Path 363" d="M.082,15.763V0H7.03A5.788,5.788,0,0,1,8.155.3,4.241,4.241,0,0,1,10,7.031c-.106.121-.651.552-.632.629a4.239,4.239,0,0,1,.55,6.868,5.425,5.425,0,0,1-3.486,1.237c-2.086.1-4.252-.079-6.346,0m3.24-9.447H6.261A1.674,1.674,0,0,0,7.13,3.3a3.069,3.069,0,0,0-.7-.284h-3.1Zm0,6.371H6.645A2.022,2.022,0,0,0,7.771,12,1.764,1.764,0,0,0,6.48,9.227H3.322Z" transform="translate(-0.08)" fill="#fff"/>
  <path id="Path_364" data-name="Path 364" d="M1223.323,0V4.943c1.919-1.745,5.452-1.941,7.02.367,1.68,2.473.55,7.354.892,10.263l-.085.189h-3.076l-.083-.082v-7.3a4.282,4.282,0,0,0-.281-.982c-.622-1.293-2.643-1.19-3.565-.283a3.744,3.744,0,0,0-.822,1.76v6.81l-.082.082h-3.076l-.082-.082V0Z" transform="translate(-1186.577)" fill="#fff"/>
  <path id="Path_365" data-name="Path 365" d="M1667.631,136.588h-8.953a3.383,3.383,0,0,0,.66,1.564,2.973,2.973,0,0,0,4.667-.411h3.405a6,6,0,0,1-4.25,4.016,6.311,6.311,0,1,1,4.469-5.17m-3.186-2.2c-.647-2.918-5.077-3-5.657,0Z" transform="translate(-1609.96 -125.878)" fill="#fff"/>
  <path id="Path_366" data-name="Path 366" d="M446.4,136.564h-8.952a2.858,2.858,0,0,0,1.281,2.1,2.98,2.98,0,0,0,4.046-.943h3.405a6.058,6.058,0,0,1-5.081,4.174,6.238,6.238,0,0,1-6.549-8.471,6.15,6.15,0,0,1,11.365-.408,7.049,7.049,0,0,1,.485,3.552m-3.186-2.2c-.664-2.912-5.1-3-5.657,0Z" transform="translate(-422.227 -125.854)" fill="#fff"/>
  <path id="Path_367" data-name="Path 367" d="M2.529,664v10.408a3.7,3.7,0,0,0,1.923,2.855,3.653,3.653,0,0,0,5.329-3.292l0-9.971H12.3l0,10.3c-.444,7.615-11.64,7.64-12.307.275L0,664Z" transform="translate(0 -645.766)" fill="#fff"/>
  <path id="Path_368" data-name="Path 368" d="M1470.182,801.234h-9.611a3.583,3.583,0,0,0,4.659,2.984,3.2,3.2,0,0,0,2.1-1.611h2.581a6.136,6.136,0,1,1-2.785-7.678,6.336,6.336,0,0,1,3.059,6.305m-2.417-1.977a3.662,3.662,0,0,0-7.14,0Z" transform="translate(-1418.058 -772.345)" fill="#fff"/>
  <path id="Path_369" data-name="Path 369" d="M3010.636,806l3.844,8.184,3.488-8.184h2.582c-1.632,3.632-3.2,7.3-4.878,10.912-.881,1.9-2.15,5.181-4.706,5.181h-1.95v-2.2h1.675a2.294,2.294,0,0,0,1.643-1.158,11.724,11.724,0,0,0,.847-1.768l-5.1-10.97Z" transform="translate(-2925.477 -783.866)" fill="#fff"/>
  <path id="Path_370" data-name="Path 370" d="M498.847,807.973H496.43v-6.947c-.037-2.179-1.638-3.53-3.788-2.8a3.436,3.436,0,0,0-2.088,2.8v6.948h-2.471V796.193l.082-.082h1.593l.467,1.593c.075.067.692-.624.8-.712,2.992-2.5,7.746-.758,7.824,3.322Z" transform="translate(-474.679 -773.976)" fill="#fff"/>
  <path id="Path_371" data-name="Path 371" d="M2201.419,799.535h-2.307c.083-1.86-2.824-2.095-3.951-1.287a1.2,1.2,0,0,0-.252,1.728c.671.7,3.457.859,4.561,1.261,3.2,1.161,2.858,5.275-.1,6.492-2.9,1.191-7.267.115-7.287-3.58h2.362c.069,1.946,2.886,2.305,4.192,1.473a1.266,1.266,0,0,0,.421-1.83c-1.107-1.475-5.561-.383-6.578-3.2a3.413,3.413,0,0,1,1.928-4.363c2.71-1.2,7.023-.247,7.012,3.3" transform="translate(-2131.885 -773.886)" fill="#fff"/>
  <path id="Path_372" data-name="Path 372" d="M873.355,30v3.076h3.24v2.581H873.41v4.916a1.656,1.656,0,0,0,.858,1.284,2.912,2.912,0,0,0,.982.226H876.7v2.774c-.048.078-.109.076-.189.085a8.957,8.957,0,0,1-4.461-.6,4,4,0,0,1-1.83-2.948V35.657h-2.142l.052-.8,4.531-4.806Z" transform="translate(-844.243 -29.176)" fill="#fff"/>
  <path id="Path_373" data-name="Path 373" d="M1054.526,806l3.652,8.733,3.488-8.733h2.389l-4.858,11.867c-.645-.064-1.409.073-2.037,0-.079-.009-.144-.006-.183-.091L1052.082,806Z" transform="translate(-1023.191 -783.866)" fill="#fff"/>
  <path id="Path_374" data-name="Path 374" d="M2135.323,0V15.68l-.083.082h-3.158V0Z" transform="translate(-2073.532)" fill="#fff"/>
  <path id="Path_375" data-name="Path 375" d="M2697.91,706v2.746h3.515v2.087h-3.46v5.959a2.29,2.29,0,0,0,.633,1.125,2.675,2.675,0,0,0,1.316.5h1.565v2.2h-2.334a3.946,3.946,0,0,1-3.655-3.98l0-5.8h-2.087c-.1-.464.231-.724.521-1.044,1.145-1.267,2.4-2.442,3.512-3.738Z" transform="translate(-2619.423 -686.612)" fill="#fff"/>
  <path id="Path_376" data-name="Path 376" d="M1944.783,803.346v2.307h-1.675a2.772,2.772,0,0,0-2.609,2.664v6.948h-2.416V803.4h1.565l.494,1.592c1.085-1.5,2.9-1.743,4.641-1.646" transform="translate(-1884.86 -781.267)" fill="#fff"/>
  <path id="Path_377" data-name="Path 377" d="M930.554,817.863h-2.471V806.082l.082-.082h2.307l.082.082Z" transform="translate(-902.596 -783.866)" fill="#fff"/>
  <path id="Path_378" data-name="Path 378" d="M2584.5,817.863h-2.417V806h2.334l.083.082Z" transform="translate(-2511.174 -783.866)" fill="#fff"/>
  <path id="Path_379" data-name="Path 379" d="M2582.609,650.526h-2.527V648h2.444l.082.083Z" transform="translate(-2509.23 -630.205)" fill="#fff"/>
  <rect id="Rectangle_185" data-name="Rectangle 185" width="2.472" height="2.526" transform="translate(25.486 17.795)" fill="#fff"/>
</svg>
