<svg xmlns="http://www.w3.org/2000/svg" width="252.252" height="80" viewBox="0 0 252.252 80">
  <g id="City_of_McKenzie_Logo_-_DBG" data-name="City of McKenzie Logo - DBG" transform="translate(126.126 40)">
    <g id="Group_12" data-name="Group 12" transform="translate(-126.126 -40)">
      <g id="Group_7" data-name="Group 7" transform="translate(90.09 18.453)">
        <g id="Group_4" data-name="Group 4">
          <g id="Group_1" data-name="Group 1" transform="translate(76.109)">
            <path id="Path_1" data-name="Path 1" d="M464.979,52.776a2.365,2.365,0,1,0,0,4.731,2.84,2.84,0,0,0,1.929-.835l.8.9a4.05,4.05,0,0,1-2.8,1.22,3.613,3.613,0,1,1,.051-7.222,3.945,3.945,0,0,1,2.741,1.139l-.792,1A2.667,2.667,0,0,0,464.979,52.776Z" transform="translate(-461.203 -51.566)" fill="#fff"/>
            <path id="Path_2" data-name="Path 2" d="M490.769,51.678V58.8h-1.36V51.678Z" transform="translate(-479.245 -51.638)" fill="#fff"/>
            <path id="Path_3" data-name="Path 3" d="M508.674,51.678v1.211h-2.213V58.8h-1.37v-5.91h-2.213V51.678Z" transform="translate(-487.86 -51.638)" fill="#fff"/>
            <path id="Path_4" data-name="Path 4" d="M530.247,56.47V58.8h-1.36V56.52l-2.649-4.842h1.381l1.939,3.347,1.908-3.347h1.37Z" transform="translate(-502.802 -51.638)" fill="#fff"/>
            <path id="Path_5" data-name="Path 5" d="M575.541,55.167a3.791,3.791,0,1,1-3.786-3.6A3.647,3.647,0,0,1,575.541,55.167Zm-6.182,0a2.414,2.414,0,0,0,2.416,2.4,2.391,2.391,0,1,0-2.416-2.4Z" transform="translate(-529.494 -51.566)" fill="#fff"/>
            <path id="Path_6" data-name="Path 6" d="M604.261,51.678l-.01,1.191h-3.532v1.922h3.218v1.191h-3.218V58.8h-1.36V51.678Z" transform="translate(-549.573 -51.638)" fill="#fff"/>
          </g>
          <g id="Group_3" data-name="Group 3" transform="translate(0 3.393)">
            <g id="Group_2" data-name="Group 2">
              <path id="Path_7" data-name="Path 7" d="M255.956,67.312l6.865,14.432,6.83-14.432h5.923v23.6H270.8V75l-6.259,13.522h-3.466L254.812,75V90.916H250v-23.6Z" transform="translate(-250 -65.019)" fill="#fff"/>
              <path id="Path_8" data-name="Path 8" d="M340.353,86.39c-2.524,0-4.307,1.955-4.307,4.856,0,2.933,1.783,4.922,4.307,4.922a4.694,4.694,0,0,0,4.206-2.124l3.567,2.428c-1.515,2.529-4.341,4.013-8.042,4.013-5.485,0-9.22-3.709-9.22-9.205,0-5.564,3.735-9.307,9.287-9.307a9,9,0,0,1,7.84,3.811l-3.5,2.529A4.986,4.986,0,0,0,340.353,86.39Z" transform="translate(-301.724 -74.385)" fill="#fff"/>
              <path id="Path_9" data-name="Path 9" d="M403.488,90.916l-6.763-9.61-3.4,3.777v5.834h-5.316v-23.6h5.316V78.035l9.792-10.723h6.157l-8.849,9.846,9.455,13.758Z" transform="translate(-338.276 -65.019)" fill="#fff"/>
              <path id="Path_10" data-name="Path 10" d="M470.456,92.8H457.467a4.627,4.627,0,0,0,4.677,3.641,6.412,6.412,0,0,0,4.576-1.922l2.725,2.765a10.083,10.083,0,0,1-7.739,3.2c-5.787,0-9.455-3.709-9.455-9.205,0-5.6,3.8-9.307,9.321-9.307C467.932,81.972,470.893,86.187,470.456,92.8Zm-4.846-3.069a3.783,3.783,0,0,0-4-3.945c-2.288,0-3.836,1.551-4.24,3.945Z" transform="translate(-379.368 -74.385)" fill="#fff"/>
              <path id="Path_11" data-name="Path 11" d="M530.361,88.824v11.4H525.18v-9.88a3.364,3.364,0,0,0-3.567-3.709c-2.591.033-4.139,1.989-4.139,4.653v8.936h-5.182V82.08h5.182v3.17a6.756,6.756,0,0,1,6.259-3.373C527.771,81.878,530.361,84.576,530.361,88.824Z" transform="translate(-417.772 -74.325)" fill="#fff"/>
              <path id="Path_12" data-name="Path 12" d="M586.714,82.532V85.8l-9.321,10.757h9.623v4.114l-16.084-.034V97.369l9.321-10.757-8.984-.034V82.532Z" transform="translate(-455.281 -74.743)" fill="#fff"/>
              <path id="Path_13" data-name="Path 13" d="M630.645,68.717V86.859h-5.182V68.717Zm-.067-5.159a2.525,2.525,0,1,1-2.524-2.6A2.478,2.478,0,0,1,630.578,63.559Z" transform="translate(-490.161 -60.962)" fill="#fff"/>
              <path id="Path_14" data-name="Path 14" d="M667.57,92.8H654.582a4.628,4.628,0,0,0,4.677,3.641,6.412,6.412,0,0,0,4.576-1.922l2.725,2.765a10.083,10.083,0,0,1-7.739,3.2c-5.787,0-9.455-3.709-9.455-9.205,0-5.6,3.8-9.307,9.321-9.307C665.046,81.972,668.008,86.187,667.57,92.8Zm-4.845-3.069a3.783,3.783,0,0,0-4-3.945c-2.288,0-3.836,1.551-4.24,3.945Z" transform="translate(-505.45 -74.385)" fill="#fff"/>
            </g>
          </g>
        </g>
        <g id="Group_6" data-name="Group 6" transform="translate(0 34.805)">
          <g id="Group_5" data-name="Group 5" transform="translate(35.427)">
            <path id="Path_15" data-name="Path 15" d="M354.817,148.136v1.36h-2.485v6.636h-1.539V149.5h-2.485v-1.36Z" transform="translate(-348.309 -148.067)" fill="#fff"/>
            <path id="Path_16" data-name="Path 16" d="M383.132,148.136v1.337h-4.32v1.976h3.875v1.337h-3.875v2.01h4.457v1.336h-5.984v-8Z" transform="translate(-366.843 -148.067)" fill="#fff"/>
            <path id="Path_17" data-name="Path 17" d="M407.551,148.136l4.115,5.471v-5.471h1.482v8H411.7l-4.1-5.459v5.459H406.1v-8Z" transform="translate(-385.276 -148.067)" fill="#fff"/>
            <path id="Path_18" data-name="Path 18" d="M440.451,148.136l4.115,5.471v-5.471h1.481v8H444.6l-4.1-5.459v5.459H439v-8Z" transform="translate(-406.32 -148.067)" fill="#fff"/>
            <path id="Path_19" data-name="Path 19" d="M477.748,148.136v1.337h-4.32v1.976H477.3v1.337h-3.875v2.01h4.457v1.336H471.9v-8Z" transform="translate(-427.363 -148.067)" fill="#fff"/>
            <path id="Path_20" data-name="Path 20" d="M502.067,149.34c-.719,0-1.186.262-1.186.753,0,1.622,4.286.743,4.274,3.609,0,1.5-1.3,2.364-3.055,2.364a5.173,5.173,0,0,1-3.374-1.279l.638-1.291a4.484,4.484,0,0,0,2.759,1.177c.855,0,1.367-.32,1.367-.88,0-1.668-4.285-.719-4.285-3.563,0-1.394,1.2-2.285,2.986-2.285a5.422,5.422,0,0,1,2.884.845l-.616,1.325A5.094,5.094,0,0,0,502.067,149.34Z" transform="translate(-444.522 -147.946)" fill="#fff"/>
            <path id="Path_21" data-name="Path 21" d="M529.841,149.34c-.718,0-1.186.262-1.186.753,0,1.622,4.286.743,4.274,3.609,0,1.5-1.3,2.364-3.055,2.364a5.174,5.174,0,0,1-3.374-1.279l.638-1.291a4.484,4.484,0,0,0,2.759,1.177c.855,0,1.368-.32,1.368-.88,0-1.668-4.285-.719-4.285-3.563,0-1.394,1.2-2.285,2.986-2.285a5.421,5.421,0,0,1,2.884.845l-.615,1.325A5.1,5.1,0,0,0,529.841,149.34Z" transform="translate(-462.288 -147.946)" fill="#fff"/>
            <path id="Path_22" data-name="Path 22" d="M562.114,148.136v1.337h-4.32v1.976h3.875v1.337h-3.875v2.01h4.457v1.336h-5.984v-8Z" transform="translate(-481.327 -148.067)" fill="#fff"/>
            <path id="Path_23" data-name="Path 23" d="M590.932,148.136v1.337h-4.32v1.976h3.875v1.337h-3.875v2.01h4.457v1.336h-5.984v-8Z" transform="translate(-499.76 -148.067)" fill="#fff"/>
          </g>
          <rect id="Rectangle_3" data-name="Rectangle 3" width="27.306" height="0.589" transform="translate(0 3.766)" fill="#fff"/>
          <rect id="Rectangle_4" data-name="Rectangle 4" width="27.306" height="0.589" transform="translate(134.856 3.766)" fill="#fff"/>
        </g>
      </g>
      <g id="Group_11" data-name="Group 11" transform="translate(0 0)">
        <ellipse id="Ellipse_1" data-name="Ellipse 1" cx="39.916" cy="40" rx="39.916" ry="40" fill="#fd0f17"/>
        <g id="Group_10" data-name="Group 10" transform="translate(2.353 2.189)">
          <ellipse id="Ellipse_2" data-name="Ellipse 2" cx="37.647" cy="37.727" rx="37.647" ry="37.727" fill="#fff"/>
          <g id="Group_8" data-name="Group 8" transform="translate(2.56 2.588)">
            <path id="Path_24" data-name="Path 24" d="M105.13,37.488a7.63,7.63,0,0,0-15.15,0,21.97,21.97,0,0,1,7.575,4.482A21.964,21.964,0,0,1,105.13,37.488Z" transform="translate(-62.468 -24.606)" fill="#0a2c6f"/>
            <path id="Path_25" data-name="Path 25" d="M57.3,25.868a9.72,9.72,0,0,1,.475-1.768l-1.654-1.538a7.422,7.422,0,0,1,1.106-1.919l2.147.663A9.833,9.833,0,0,1,60.7,19.969l-.662-2.152a7.383,7.383,0,0,1,1.915-1.108l1.535,1.657a9.691,9.691,0,0,1,1.813-.486l.5-2.205a7.4,7.4,0,0,1,2.212,0l.5,2.205a9.694,9.694,0,0,1,1.813.486l1.535-1.657a7.427,7.427,0,0,1,1.915,1.108l-.662,2.152a9.853,9.853,0,0,1,1.334,1.337l2.147-.663a7.421,7.421,0,0,1,1.106,1.919L76.057,24.1a9.718,9.718,0,0,1,.474,1.768,41.278,41.278,0,0,1,15.22-1.846,35.031,35.031,0,0,0-49.674,0A41.278,41.278,0,0,1,57.3,25.868Z" transform="translate(-31.828 -13.695)" fill="#0a2c6f"/>
            <path id="Path_26" data-name="Path 26" d="M197.992,102.012a35.053,35.053,0,0,0-.55-12.947l-4.731,5.263Z" transform="translate(-128.179 -61.847)" fill="#fd0f17"/>
            <path id="Path_27" data-name="Path 27" d="M58.164,54.669C63.01,50.45,75.1,48.608,87.931,52.143a35.29,35.29,0,0,0-2.593-3.631c-.259-.039-.523-.08-.795-.125-7.664-1.274-20.269.33-26.378,4.967-6.11-4.636-18.715-6.241-26.379-4.967-.272.045-.536.086-.8.125A35.234,35.234,0,0,0,28.4,52.143C41.226,48.608,53.32,50.45,58.164,54.669Z" transform="translate(-23.078 -35.59)" fill="#460a7f"/>
            <path id="Path_28" data-name="Path 28" d="M73.388,80.9,69,85.779v7.533H62.134V62.833H69V76.679L80.731,63.832q-.406-.906-.861-1.784c-13.525-4.3-25.6-2.156-29.852,1.524H47.424c-4.256-3.681-16.326-5.822-29.852-1.524a34.976,34.976,0,0,0-2.219,5.305l6.714,14.115,8.82-18.636h7.647v14.99c1.424-5,5.68-8.154,11.471-8.154,4.476,0,8.039,1.785,10.124,4.92l-4.519,3.266a6.438,6.438,0,0,0-5.344-2.482c-3.259,0-5.561,2.525-5.561,6.27,0,3.788,2.3,6.356,5.561,6.356A6.062,6.062,0,0,0,55.7,85.257L60.3,88.392c-1.956,3.266-5.605,5.181-10.385,5.181-5.72,0-9.962-3.126-11.384-8.066v7.805h-6.17V72.76L24.283,90.221H19.808L13.667,76.955c-.015.423-.032.845-.032,1.272A35.08,35.08,0,0,0,81.081,91.835ZM49.074,78.11l.777-1.75.4,1.874,1.9.2-1.655.958.4,1.874-1.421-1.282-1.656.958.778-1.75L47.172,77.91Zm1.175,7.022-.4,1.874-.777-1.75-1.9.2,1.421-1.282-.778-1.75,1.656.958L50.892,82.1l-.4,1.874,1.655.958Zm6.124-1.9-1.818-.592L53.43,84.19V82.275l-1.818-.592,1.818-.592V79.175l1.124,1.55,1.818-.592-1.124,1.55Z" transform="translate(-13.635 -43.066)" fill="#fd0f17"/>
          </g>
          <g id="Group_9" data-name="Group 9" transform="translate(8.333 54.644)">
            <path id="Path_29" data-name="Path 29" d="M31.076,166.555A170.834,170.834,0,0,1,64.785,179.9a34.757,34.757,0,0,0,6.84-1.878,162.067,162.067,0,0,0-41.972-13.478Q30.331,165.576,31.076,166.555Z" transform="translate(-29.653 -162.126)" fill="#68b620"/>
            <path id="Path_30" data-name="Path 30" d="M39.507,176.855a165.746,165.746,0,0,1,16.106,8.4,35.106,35.106,0,0,0,7.6.836c.572,0,1.14-.016,1.7-.043a161.826,161.826,0,0,0-28.629-12.578A35.339,35.339,0,0,0,39.507,176.855Z" transform="translate(-33.896 -167.831)" fill="#68b620"/>
            <path id="Path_31" data-name="Path 31" d="M160.546,167.751c2.355-.629,4.721-1.229,7.053-1.786.516-.684,1-1.391,1.468-2.113-4.308.675-8.828,1.521-13.366,2.516Q158.086,167.009,160.546,167.751Z" transform="translate(-110.279 -161.683)" fill="#68b620"/>
            <path id="Path_32" data-name="Path 32" d="M125.6,160.013q3.535.691,7.252,1.6c5.94-1.048,12.044-1.919,17.537-2.5q.376-.623.725-1.264A216.756,216.756,0,0,0,125.6,160.013Z" transform="translate(-91.023 -157.846)" fill="#68b620"/>
          </g>
          <path id="Path_33" data-name="Path 33" d="M25.637,157.9q.436.8.914,1.564c11.722,1.514,25.3,4.932,45.474,13a35.151,35.151,0,0,0,8.412-5.881C58.11,159.071,40.344,158.035,25.637,157.9Zm19.879,3.259c-2.223-.534-4.336-1.015-6.244-1.414,2.317.306,4.881.746,7.558,1.274Zm9.937,2.531c-2.1-.562-4.221-1.113-6.287-1.633l1.742-.185c2.24.493,4.512,1.029,6.745,1.584ZM72,168.409c-2.79-.857-6.3-1.886-10.11-2.952l2.417-.256c3.875,1.06,7.365,2.1,10.014,2.962Z" transform="translate(-18.751 -103.24)" fill="#fff"/>
        </g>
      </g>
    </g>
  </g>
</svg>
