<svg id="Document_Download_Icon_-_Large" data-name="Document Download Icon - Large" xmlns="http://www.w3.org/2000/svg" width="38.782" height="40" viewBox="0 0 38.782 40">
  <path id="Path_1224" data-name="Path 1224" d="M10.222,121.613l-2.1,2.1V113.624a1.624,1.624,0,0,0-3.249,0v10.089l-2.1-2.1a1.624,1.624,0,0,0-2.3,2.3l4.873,4.873a1.625,1.625,0,0,0,2.3,0l4.873-4.873a1.624,1.624,0,0,0-2.3-2.3" transform="translate(0 -89.259)" fill="#fff"/>
  <path id="Path_1225" data-name="Path 1225" d="M56.636,8.6,48.514.476A1.625,1.625,0,0,0,47.365,0H31.122A8.131,8.131,0,0,0,23,8.122v9.894a1.624,1.624,0,0,0,3.249,0V8.122a4.879,4.879,0,0,1,4.873-4.873H44.117V6.5a6.5,6.5,0,0,0,6.5,6.5h3.249V30.863a4.879,4.879,0,0,1-4.873,4.873H34.408a1.624,1.624,0,1,0,0,3.249H48.99a8.131,8.131,0,0,0,8.122-8.122V9.746A1.625,1.625,0,0,0,56.636,8.6M50.614,9.746A3.253,3.253,0,0,1,47.365,6.5V3.921L53.19,9.746Z" transform="translate(-18.33 0)" fill="#fff"/>
  <path id="Path_1226" data-name="Path 1226" d="M75.995,129.624A1.624,1.624,0,0,0,74.371,128H64.624a1.624,1.624,0,0,0,0,3.249h9.746a1.624,1.624,0,0,0,1.624-1.624" transform="translate(-50.208 -102.01)" fill="#fff"/>
  <path id="Path_1227" data-name="Path 1227" d="M64.624,91.249H79.244a1.624,1.624,0,0,0,0-3.249H64.624a1.624,1.624,0,1,0,0,3.249" transform="translate(-50.208 -70.132)" fill="#fff"/>
</svg>
