<svg xmlns="http://www.w3.org/2000/svg" width="40" height="40" viewBox="0 0 40 40">
  <g id="Filter_Icon_-_Fill" data-name="Filter Icon - Fill" transform="translate(-1279 -791)">
    <path id="Path_1373" data-name="Path 1373" d="M20,0A20,20,0,1,0,40,20,20,20,0,0,0,20,0m0,37.577v0" transform="translate(1279 791)" fill="#00558a"/>
    <path id="Path_1372" data-name="Path 1372" d="M29.8,11.367H10.861A1.238,1.238,0,0,0,9.625,12.6v2.351a5.542,5.542,0,0,0,1.884,4.17l5,4.371v7.03A2.1,2.1,0,0,0,18.954,32.6l2.725-.454a2.949,2.949,0,0,0,2.467-2.918V23.5l5-4.371a5.542,5.542,0,0,0,1.892-4.17V12.6A1.238,1.238,0,0,0,29.8,11.367M18.566,22l-5.418-4.74a3.07,3.07,0,0,1-1.048-2.31V13.842H28.57v1.114a3.068,3.068,0,0,1-1.048,2.309L22.1,22a1.237,1.237,0,0,0-.422.93v6.29a.486.486,0,0,1-.406.479l-2.288.381V22.934a1.237,1.237,0,0,0-.422-.93" transform="translate(1279 791)" fill="#fff"/>
  </g>
</svg>
