<svg xmlns="http://www.w3.org/2000/svg" width="30.007" height="30" viewBox="0 0 30.007 30">
  <path id="Instagram_-_White" data-name="Instagram - White" d="M339.546,294.366a7.692,7.692,0,1,0,7.692,7.692,7.68,7.68,0,0,0-7.692-7.692m0,12.692a5,5,0,1,1,5-5,5.01,5.01,0,0,1-5,5m9.8-13.007a1.794,1.794,0,1,1-1.794-1.794,1.79,1.79,0,0,1,1.794,1.794m5.094,1.821a8.308,8.308,0,0,0-8.709-8.709c-2.477-.141-9.9-.141-12.378,0a8.3,8.3,0,0,0-8.709,8.7c-.141,2.477-.141,9.9,0,12.377a8.309,8.309,0,0,0,8.709,8.709c2.477.141,9.9.141,12.378,0a8.309,8.309,0,0,0,8.709-8.709c.141-2.477.141-9.894,0-12.371m-3.2,15.029a5.063,5.063,0,0,1-2.852,2.852c-1.975.783-6.661.6-8.843.6s-6.875.174-8.843-.6a5.063,5.063,0,0,1-2.852-2.852c-.783-1.975-.6-6.661-.6-8.843s-.174-6.875.6-8.843a5.063,5.063,0,0,1,2.852-2.852c1.975-.783,6.661-.6,8.843-.6s6.875-.174,8.843.6a5.063,5.063,0,0,1,2.852,2.852c.783,1.975.6,6.661.6,8.843s.181,6.875-.6,8.843" transform="translate(-324.539 -287.058)" fill="#fff"/>
</svg>
