<svg xmlns="http://www.w3.org/2000/svg" width="175" height="52.727" viewBox="0 0 175 52.727">
  <g id="McKenzie_Logo_-_White" data-name="McKenzie Logo - White" transform="translate(87.5 26.364)">
    <g id="Group_34" data-name="Group 34" transform="translate(-87.5 -26.364)">
      <g id="Group_32" data-name="Group 32" transform="translate(61.441 11.365)">
        <g id="Group_29" data-name="Group 29" transform="translate(0 0)">
          <g id="Group_26" data-name="Group 26" transform="translate(53.298)">
            <path id="Path_80" data-name="Path 80" d="M457.318,45.883a1.653,1.653,0,1,0,0,3.306,1.99,1.99,0,0,0,1.351-.583l.562.626a2.839,2.839,0,0,1-1.962.853,2.525,2.525,0,1,1,.036-5.047,2.765,2.765,0,0,1,1.919.8l-.555.7A1.869,1.869,0,0,0,457.318,45.883Z" transform="translate(-454.674 -45.037)" fill="#fff"/>
            <path id="Path_81" data-name="Path 81" d="M483.831,45.149v4.976h-.952V45.149Z" transform="translate(-475.761 -45.121)" fill="#fff"/>
            <path id="Path_82" data-name="Path 82" d="M500.407,45.149V46h-1.549v4.13h-.96V46h-1.55v-.846Z" transform="translate(-485.831 -45.121)" fill="#fff"/>
            <path id="Path_83" data-name="Path 83" d="M522.516,48.5v1.628h-.953V48.533l-1.855-3.384h.967l1.358,2.339,1.336-2.339h.96Z" transform="translate(-503.296 -45.121)" fill="#fff"/>
            <path id="Path_84" data-name="Path 84" d="M566.742,47.553a2.655,2.655,0,1,1-2.651-2.516A2.551,2.551,0,0,1,566.742,47.553Zm-4.329,0a1.688,1.688,0,0,0,1.692,1.678,1.671,1.671,0,1,0-1.692-1.678Z" transform="translate(-534.496 -45.037)" fill="#fff"/>
            <path id="Path_85" data-name="Path 85" d="M596.262,45.149l-.007.832h-2.474v1.343h2.253v.832h-2.253v1.969h-.953V45.149Z" transform="translate(-557.964 -45.121)" fill="#fff"/>
          </g>
          <g id="Group_28" data-name="Group 28" transform="translate(0 2.371)">
            <g id="Group_27" data-name="Group 27">
              <path id="Path_86" data-name="Path 86" d="M247.641,60.783l4.807,10.085,4.783-10.085h4.147V77.277h-3.346V66.155L253.65,75.6h-2.427l-4.383-9.449V77.277h-3.37V60.783Z" transform="translate(-243.47 -59.181)" fill="#fff"/>
              <path id="Path_87" data-name="Path 87" d="M330.979,78.53c-1.767,0-3.016,1.366-3.016,3.393,0,2.05,1.249,3.44,3.016,3.44a3.29,3.29,0,0,0,2.945-1.484l2.5,1.7a6.226,6.226,0,0,1-5.632,2.8,6.468,6.468,0,1,1,.047-12.936,6.311,6.311,0,0,1,5.49,2.663l-2.451,1.767A3.5,3.5,0,0,0,330.979,78.53Z" transform="translate(-303.928 -70.141)" fill="#fff"/>
              <path id="Path_88" data-name="Path 88" d="M392.319,77.277l-4.736-6.715L385.2,73.2v4.076h-3.723V60.783H385.2v7.493l6.857-7.493h4.312l-6.2,6.88,6.622,9.614Z" transform="translate(-346.652 -59.181)" fill="#fff"/>
              <path id="Path_89" data-name="Path 89" d="M458.47,83.007h-9.1a3.239,3.239,0,0,0,3.276,2.545,4.5,4.5,0,0,0,3.2-1.343l1.908,1.932a7.068,7.068,0,0,1-5.42,2.238c-4.053,0-6.621-2.592-6.621-6.433a6.178,6.178,0,0,1,6.527-6.5C456.7,75.443,458.776,78.388,458.47,83.007Zm-3.393-2.144a2.647,2.647,0,0,0-2.8-2.757,2.973,2.973,0,0,0-2.969,2.757Z" transform="translate(-394.683 -70.141)" fill="#fff"/>
              <path id="Path_90" data-name="Path 90" d="M518.416,80.2v7.965h-3.628v-6.9a2.353,2.353,0,0,0-2.5-2.592,2.936,2.936,0,0,0-2.9,3.252v6.244h-3.629V75.49h3.629v2.215a4.733,4.733,0,0,1,4.383-2.356C516.6,75.349,518.416,77.234,518.416,80.2Z" transform="translate(-439.572 -70.071)" fill="#fff"/>
              <path id="Path_91" data-name="Path 91" d="M575.455,76v2.286L568.928,85.8h6.739V88.68L564.4,88.656V86.37l6.527-7.517-6.292-.024V76Z" transform="translate(-483.415 -70.559)" fill="#fff"/>
              <path id="Path_92" data-name="Path 92" d="M622.562,59.853V72.53h-3.629V59.853Zm-.047-3.6a1.768,1.768,0,1,1-1.767-1.815A1.733,1.733,0,0,1,622.515,56.248Z" transform="translate(-524.183 -54.433)" fill="#fff"/>
              <path id="Path_93" data-name="Path 93" d="M655.584,83.007h-9.1a3.239,3.239,0,0,0,3.276,2.545,4.5,4.5,0,0,0,3.2-1.343l1.908,1.932a7.069,7.069,0,0,1-5.42,2.238c-4.053,0-6.622-2.592-6.622-6.433a6.178,6.178,0,0,1,6.527-6.5C653.817,75.443,655.891,78.388,655.584,83.007Zm-3.393-2.144a2.647,2.647,0,0,0-2.8-2.757,2.973,2.973,0,0,0-2.969,2.757Z" transform="translate(-542.054 -70.141)" fill="#fff"/>
            </g>
          </g>
        </g>
        <g id="Group_31" data-name="Group 31" transform="translate(0 24.322)">
          <g id="Group_30" data-name="Group 30" transform="translate(24.809)">
            <path id="Path_94" data-name="Path 94" d="M346.337,141.607v.95H344.6v4.637H343.52v-4.637h-1.74v-.95Z" transform="translate(-341.78 -141.559)" fill="#fff"/>
            <path id="Path_95" data-name="Path 95" d="M374.85,141.607v.934h-3.025v1.381h2.714v.934h-2.714v1.4h3.121v.934h-4.191v-5.587Z" transform="translate(-363.443 -141.559)" fill="#fff"/>
            <path id="Path_96" data-name="Path 96" d="M400.587,141.607l2.881,3.823v-3.823h1.037v5.587h-1.013l-2.874-3.815v3.815h-1.046v-5.587Z" transform="translate(-384.989 -141.559)" fill="#fff"/>
            <path id="Path_97" data-name="Path 97" d="M433.487,141.607l2.881,3.823v-3.823h1.038v5.587h-1.014l-2.873-3.815v3.815h-1.046v-5.587Z" transform="translate(-409.586 -141.559)" fill="#fff"/>
            <path id="Path_98" data-name="Path 98" d="M469.466,141.607v.934h-3.025v1.381h2.714v.934h-2.714v1.4h3.121v.934h-4.19v-5.587Z" transform="translate(-434.183 -141.559)" fill="#fff"/>
            <path id="Path_99" data-name="Path 99" d="M494.536,142.39c-.5,0-.83.183-.83.527,0,1.133,3,.519,2.993,2.522,0,1.046-.91,1.652-2.139,1.652a3.629,3.629,0,0,1-2.363-.894l.447-.9a3.143,3.143,0,0,0,1.932.822c.6,0,.958-.223.958-.615,0-1.165-3-.5-3-2.49,0-.974.838-1.6,2.091-1.6a3.8,3.8,0,0,1,2.019.591l-.431.926A3.574,3.574,0,0,0,494.536,142.39Z" transform="translate(-454.239 -141.416)" fill="#fff"/>
            <path id="Path_100" data-name="Path 100" d="M522.311,142.39c-.5,0-.83.183-.83.527,0,1.133,3,.519,2.993,2.522,0,1.046-.91,1.652-2.139,1.652a3.628,3.628,0,0,1-2.362-.894l.447-.9a3.143,3.143,0,0,0,1.932.822c.6,0,.958-.223.958-.615,0-1.165-3-.5-3-2.49,0-.974.838-1.6,2.091-1.6a3.8,3.8,0,0,1,2.019.591l-.431.926A3.573,3.573,0,0,0,522.311,142.39Z" transform="translate(-475.005 -141.416)" fill="#fff"/>
            <path id="Path_101" data-name="Path 101" d="M553.832,141.607v.934h-3.025v1.381h2.714v.934h-2.714v1.4h3.121v.934h-4.191v-5.587Z" transform="translate(-497.258 -141.559)" fill="#fff"/>
            <path id="Path_102" data-name="Path 102" d="M582.65,141.607v.934h-3.025v1.381h2.714v.934h-2.714v1.4h3.121v.934h-4.191v-5.587Z" transform="translate(-518.804 -141.559)" fill="#fff"/>
          </g>
          <rect id="Rectangle_7" data-name="Rectangle 7" width="19.122" height="0.412" transform="translate(0 2.632)" fill="#fff"/>
          <rect id="Rectangle_8" data-name="Rectangle 8" width="19.122" height="0.412" transform="translate(94.437 2.632)" fill="#fff"/>
        </g>
      </g>
      <g id="Group_33" data-name="Group 33">
        <path id="Path_103" data-name="Path 103" d="M102.776,115.256l-.995.9-1.159-.669.545,1.223-.995.9,1.331-.14.544,1.223.278-1.309,1.331-.14-1.159-.669Z" transform="translate(-74.893 -86.171)" fill="#fff"/>
        <path id="Path_104" data-name="Path 104" d="M114.552,108.24l-.787-1.083V108.5l-1.273.414,1.273.414v1.339l.787-1.083,1.273.414-.787-1.083.787-1.083Z" transform="translate(-84.104 -80.116)" fill="#fff"/>
        <path id="Path_105" data-name="Path 105" d="M100.621,102.564l1.159-.669.995.9-.278-1.309,1.159-.669-1.331-.14-.278-1.309-.544,1.223-1.331-.14.995.9Z" transform="translate(-74.893 -74.288)" fill="#fff"/>
        <path id="Path_106" data-name="Path 106" d="M26.364,0A26.364,26.364,0,1,0,52.727,26.364,26.364,26.364,0,0,0,26.364,0Zm0,1.808A24.493,24.493,0,0,1,43.756,9.025,28.964,28.964,0,0,0,33.1,10.315a6.78,6.78,0,0,0-.332-1.236L33.924,8a5.184,5.184,0,0,0-.774-1.341l-1.5.464a6.88,6.88,0,0,0-.934-.934l.464-1.5a5.184,5.184,0,0,0-1.341-.774L28.76,5.073a6.761,6.761,0,0,0-1.27-.34l-.352-1.541a5.194,5.194,0,0,0-1.549,0l-.352,1.541a6.756,6.756,0,0,0-1.27.34L22.893,3.915a5.183,5.183,0,0,0-1.341.774l.464,1.5a6.9,6.9,0,0,0-.934.934l-1.5-.463A5.2,5.2,0,0,0,18.8,8l1.158,1.075a6.76,6.76,0,0,0-.332,1.236A28.959,28.959,0,0,0,8.971,9.025,24.492,24.492,0,0,1,26.363,1.808Zm5.3,9a15.382,15.382,0,0,0-5.3,3.132,15.381,15.381,0,0,0-5.3-3.132,5.345,5.345,0,0,1,10.609,0Zm-24.334.028c.181-.027.366-.056.557-.087,5.367-.89,14.194.231,18.472,3.47,4.279-3.24,13.106-4.361,18.472-3.47.191.032.375.06.557.087a24.674,24.674,0,0,1,1.816,2.537c-8.984-2.47-17.452-1.183-20.845,1.765C22.971,12.193,14.5,10.906,5.518,13.376A24.633,24.633,0,0,1,7.334,10.838Zm40.58,27.347-.016.027q-.231.421-.478.831l-.014.024h0a24.6,24.6,0,0,1-1.389,2.053c-.014.019-.027.038-.041.057h0a24.529,24.529,0,0,1-18.421,9.74l0,0-.088,0-.321.012c-.26.009-.52.015-.782.015h0q-.337,0-.671-.009l-.083,0q-.3-.009-.6-.025h-.01a24.57,24.57,0,0,1-23.2-24.532c0-.3.012-.593.022-.889l4.3,9.27H9.25l5.66-12.2V36.92H19.23V31.466c1,3.452,3.967,5.637,7.972,5.637,3.347,0,5.9-1.339,7.272-3.621l-3.225-2.191a4.248,4.248,0,0,1-3.8,1.917c-2.282,0-3.895-1.795-3.895-4.442,0-2.617,1.613-4.382,3.895-4.382a4.512,4.512,0,0,1,3.742,1.734l3.165-2.282a8.149,8.149,0,0,0-7.09-3.438c-4.055,0-7.036,2.2-8.033,5.7V15.621H13.875L7.7,28.644,3,18.781A24.428,24.428,0,0,1,4.55,15.073c9.472-3,17.924-1.507,20.9,1.065h1.817c2.981-2.572,11.433-4.068,20.9-1.065q.319.613.6,1.246L40.563,25.3V15.621H35.756v21.3h4.807V31.657l3.073-3.408,5.388,7.639a24.518,24.518,0,0,1-1.112,2.3Zm-.93-13.679L50.3,20.828a24.454,24.454,0,0,1,.386,9.048Z" transform="translate(0 0)" fill="#fff"/>
        <path id="Path_107" data-name="Path 107" d="M99.691,201.771c-.2-.006-.4-.014-.6-.025Q99.387,201.761,99.691,201.771Z" transform="translate(-74.081 -150.834)" fill="#fff"/>
        <path id="Path_108" data-name="Path 108" d="M107.9,201.789l-.321.012Z" transform="translate(-80.431 -150.867)" fill="#fff"/>
        <path id="Path_109" data-name="Path 109" d="M101.811,201.858q.334.009.671.009h0Q102.145,201.867,101.811,201.858Z" transform="translate(-76.119 -150.918)" fill="#fff"/>
        <path id="Path_110" data-name="Path 110" d="M188.389,151.425q-.231.421-.478.831Q188.158,151.846,188.389,151.425Z" transform="translate(-140.491 -113.212)" fill="#fff"/>
        <path id="Path_111" data-name="Path 111" d="M24.12,159.42a119.808,119.808,0,0,1,23.6,9.327,24.4,24.4,0,0,0,4.79-1.312,113.674,113.674,0,0,0-29.392-9.419Q23.6,158.736,24.12,159.42Z" transform="translate(-17.288 -118.139)" fill="#fff"/>
        <path id="Path_112" data-name="Path 112" d="M32.013,169.308a116.012,116.012,0,0,1,11.279,5.873,24.756,24.756,0,0,0,3.951.545h.01c.2.011.4.019.6.025l.083,0q.334.009.671.009h0c.262,0,.522-.006.782-.015l.321-.012.088,0,0,0a113.432,113.432,0,0,0-20.045-8.788A24.717,24.717,0,0,0,32.013,169.308Z" transform="translate(-22.248 -124.817)" fill="#fff"/>
        <path id="Path_113" data-name="Path 113" d="M149.173,159.081q1.669.448,3.392.967c1.649-.44,3.306-.859,4.939-1.248h0c.014-.018.027-.038.041-.057.346-.461.674-.935.987-1.42C155.516,157.794,152.35,158.386,149.173,159.081Z" transform="translate(-111.529 -117.622)" fill="#fff"/>
        <path id="Path_114" data-name="Path 114" d="M124.145,153.946c4.16-.732,8.434-1.341,12.281-1.746h0l.014-.024q.247-.41.478-.831l.016-.027h0a152.126,152.126,0,0,0-17.866,1.514Q121.542,153.314,124.145,153.946Z" transform="translate(-89.02 -113.132)" fill="#fff"/>
        <path id="Path_115" data-name="Path 115" d="M19.747,152.469c8.209,1.058,17.714,3.446,31.845,9.084a24.612,24.612,0,0,0,5.89-4.109,117.165,117.165,0,0,0-38.375-6.068Q19.413,151.932,19.747,152.469Zm26.443,4.005c2.714.741,5.158,1.467,7.013,2.07l-1.626.172c-1.954-.6-4.415-1.318-7.08-2.063ZM36.8,154.152c1.569.344,3.159.719,4.724,1.107l-1.54.163c-1.473-.392-2.956-.777-4.4-1.141Zm-2.856-.6-.92.1c-1.557-.373-3.037-.71-4.373-.988C30.278,152.879,32.073,153.186,33.948,153.556Z" transform="translate(-14.285 -113.176)" fill="#fff"/>
      </g>
    </g>
  </g>
</svg>
