<svg id="Municipal_Codes_Icon" data-name="Municipal Codes Icon" xmlns="http://www.w3.org/2000/svg" xmlns:xlink="http://www.w3.org/1999/xlink" width="46.693" height="50.938" viewBox="0 0 46.693 50.938">
  <defs>
    <clipPath id="clip-path">
      <rect id="Rectangle_129" data-name="Rectangle 129" width="46.693" height="50.938" fill="#fff"/>
    </clipPath>
  </defs>
  <g id="Group_375" data-name="Group 375" transform="translate(0)" clip-path="url(#clip-path)">
    <path id="Path_179" data-name="Path 179" d="M42.916,19.507a3.906,3.906,0,0,0,3.9-3.9V11.12a3.913,3.913,0,0,0-2.568-3.667L24.075.118a1.952,1.952,0,0,0-1.333,0L2.568,7.453A3.913,3.913,0,0,0,0,11.12v4.486a3.906,3.906,0,0,0,3.9,3.9H5.852V39.126A5.859,5.859,0,0,0,0,44.978v1.951a3.906,3.906,0,0,0,3.9,3.9H42.916a3.906,3.906,0,0,0,3.9-3.9V44.978a5.859,5.859,0,0,0-5.852-5.852V19.507ZM3.9,11.12,23.408,4.027,42.916,11.12l0,4.486H3.9Zm13.655,8.387h11.7V39.126h-11.7Zm-7.8,0h3.9V39.126h-3.9ZM42.916,44.978l0,1.951H3.9V44.978a1.953,1.953,0,0,1,1.951-1.951H40.965a1.953,1.953,0,0,1,1.951,1.951m-5.852-5.852h-3.9V19.507h3.9Z" transform="translate(-0.055 0.108)" fill="#fff"/>
    <path id="Path_180" data-name="Path 180" d="M79.488,31.373a2.926,2.926,0,1,0-2.926-2.926,2.926,2.926,0,0,0,2.926,2.926" transform="translate(-56.135 -18.585)" fill="#fff"/>
  </g>
</svg>
