<svg xmlns="http://www.w3.org/2000/svg" width="46.817" height="50.83" viewBox="0 0 46.817 50.83">
  <path id="News_Notices_Icon" data-name="News &amp; Notices Icon" d="M1026.368,24.462a11.061,11.061,0,0,1-2.871-7.636,2.16,2.16,0,0,0-.017-.266,17.06,17.06,0,0,0-5.153-11.537,17.905,17.905,0,0,0-24.87,0A17.061,17.061,0,0,0,988.3,16.56a2.125,2.125,0,0,0-.017.266,11.061,11.061,0,0,1-2.871,7.636,9.362,9.362,0,0,0-2.933,6.344v1.926a9.077,9.077,0,0,0,3.4,6.965,11.4,11.4,0,0,0,7.235,2.662h4.256a8.512,8.512,0,0,0,17.024,0h4.256A11.4,11.4,0,0,0,1025.9,39.7a9.077,9.077,0,0,0,3.4-6.965V30.806a9.362,9.362,0,0,0-2.933-6.344m-20.475,22.132a4.251,4.251,0,0,1-4.256-4.236h8.512a4.251,4.251,0,0,1-4.256,4.236m19.152-13.863c0,3.085-3.371,5.391-6.384,5.391H993.124c-3.014,0-6.384-2.306-6.384-5.391V30.806a5.69,5.69,0,0,1,1.787-3.452,15.163,15.163,0,0,0,4-9.749,2.174,2.174,0,0,0,.018-.276,12.884,12.884,0,0,1,3.9-9.285,13.635,13.635,0,0,1,18.9,0,12.883,12.883,0,0,1,3.9,9.285,2.119,2.119,0,0,0,.018.276,15.164,15.164,0,0,0,4,9.749,5.689,5.689,0,0,1,1.787,3.452Z" transform="translate(-982.484)" fill="#fff"/>
</svg>
