<svg id="Business_Directory_Icon" data-name="Business Directory Icon" xmlns="http://www.w3.org/2000/svg" width="41.864" height="49.492" viewBox="0 0 41.864 49.492">
  <path id="Path_173" data-name="Path 173" d="M802.858,46.27A1.861,1.861,0,0,1,801,44.412V8.173A5.68,5.68,0,0,1,806.673,2.5H841a1.861,1.861,0,0,1,1.859,1.858V39.643A1.861,1.861,0,0,1,841,41.5h-24.8a1.858,1.858,0,0,1,0-3.717h22.937V6.217H806.673a1.958,1.958,0,0,0-1.956,1.956V44.412a1.861,1.861,0,0,1-1.859,1.858" transform="translate(-801 -2.5)" fill="#fff"/>
  <path id="Path_174" data-name="Path 174" d="M808.1,148.6a7.1,7.1,0,0,1-3.684-13.178,1.859,1.859,0,0,1,1.93,3.177,3.387,3.387,0,0,0,1.754,6.284h28.975a7.626,7.626,0,0,1,0-6.773h-22.3a1.858,1.858,0,0,1,0-3.717H841a1.859,1.859,0,0,1,1.115,3.345,4.394,4.394,0,0,0,0,7.516A1.859,1.859,0,0,1,841,148.6Z" transform="translate(-801 -99.109)" fill="#fff"/>
  <path id="Path_175" data-name="Path 175" d="M845.634,45.428a1.858,1.858,0,0,1,0-3.717h14.3a1.858,1.858,0,0,1,0,3.717Z" transform="translate(-832.332 -31.221)" fill="#fff"/>
  <path id="Path_176" data-name="Path 176" d="M845.634,73.946a1.858,1.858,0,0,1,0-3.717h14.3a1.858,1.858,0,0,1,0,3.717Z" transform="translate(-832.332 -52.11)" fill="#fff"/>
</svg>
