<svg xmlns="http://www.w3.org/2000/svg" width="22" height="30" viewBox="0 0 22 30">
  <path id="Call_Icon_-_White" data-name="Call Icon - White" d="M7.863,16.851c.644,1.085,1.973,3.173,3.12,3.786s2.247.2,3.438-.327A3.4,3.4,0,0,1,16.7,19.73c1.332.119,4.247,3.326,4.821,4.52,1.746,3.631-1.559,6.3-5.166,5.649-4.462-.808-9.167-6.121-12.123-11.1S-1.073,7.239.509,3.193C1.787-.078,5.9-1.383,8.268,1.916,9.046,3,10.425,7.031,9.843,8.176a3.215,3.215,0,0,1-1.7,1.552c-1.093.7-2.033,1.378-2.074,2.627s1.151,3.411,1.794,4.5" transform="translate(0 0.002)" fill="#fff"/>
</svg>
