<svg id="Home_Icon_-_White" data-name="Home Icon - White" xmlns="http://www.w3.org/2000/svg" width="27.632" height="30" viewBox="0 0 27.632 30">
  <path id="Path_169" data-name="Path 169" d="M222.608,30h-5.024a1.259,1.259,0,0,1-1.256-1.261V21.17a2.522,2.522,0,0,0-2.7-2.516,2.681,2.681,0,0,0-2.326,2.73v7.356A1.259,1.259,0,0,1,210.048,30h-5.024A5.041,5.041,0,0,1,200,24.954V11.128a3.826,3.826,0,0,1,1.592-3.094L212.38.456a2.491,2.491,0,0,1,2.876,0l10.772,7.566a3.832,3.832,0,0,1,1.6,3.1V24.954A5.041,5.041,0,0,1,222.608,30m-3.768-2.523h3.768a2.521,2.521,0,0,0,2.512-2.523V11.128a1.294,1.294,0,0,0-.543-1.044l-10.76-7.558-10.773,7.567a1.287,1.287,0,0,0-.531,1.035V24.954a2.521,2.521,0,0,0,2.512,2.523h3.768V21.383a5.172,5.172,0,0,1,4.658-5.246,5.039,5.039,0,0,1,5.39,5.033ZM213.812,2.523h0Zm.012,0h0" transform="translate(-200 0)" fill="#fff"/>
  <path id="Path_170" data-name="Path 170" d="M275.359,56.7h-2.512a1.262,1.262,0,0,1,0-2.523h2.512a1.262,1.262,0,0,1,0,2.523" transform="translate(-260.287 -45.619)" fill="#fff"/>
</svg>
