<svg xmlns="http://www.w3.org/2000/svg" width="180.672" height="36" viewBox="0 0 170.672 36">
  <g id="McKenzie_Special_School_District_Logo" data-name="McKenzie Special School District Logo" transform="translate(-1559.919 -1219.879)">
    <g id="Rebel_M" data-name="Rebel M" transform="translate(1559.919 1220.758)">
      <path id="Path_283" data-name="Path 283" d="M49.8,108.27l.089,7.862c-6.389-.1-12.855-.177-19.248,0L0,115.96l.05-7.69Zm-12.215,4.9c-.132.641.1,1.693,0,2.385.472.584.572-.09.843-.137s1.077.353,1.507.359a2.235,2.235,0,0,0,2.256-1.984c.147-2.5-3.073-2.471-3.189-3.634-.1-1.031,1.33-.862,1.895-.116.332.439.291,1.293.855,1.1l-.008-2.436c-.395-.142-.42.329-.664.359-.2.024-.763-.312-1.069-.35a2.042,2.042,0,0,0-1.473,3.7c.58.488,3.1,1.286,2.061,2.344-.648.658-1.578.168-1.986-.5-.164-.27-.406-1.18-.452-1.227a.334.334,0,0,0-.577.133m-26.953-4.284c-1.173-.13-2.565.1-3.762,0v.53l.707.156a7.745,7.745,0,0,1,.093,1.746,32.359,32.359,0,0,1-.1,3.347c-.11.659-.706.318-.791.4v.53h3.364v-.53a.827.827,0,0,1-.8-.31v-1.9a9.874,9.874,0,0,1,1.9,2.567l.355.176,7.073-.017c.08-.015.1-.064.132-.133.038-.1.281-1.914.273-2.027-.017-.258-.315-.283-.484-.125-.354.332-.132,1.016-1.072,1.4-.3.123-1.626.425-1.626-.032V112.6c.852-.106.82.811.987,1.4l.43.013v-3.577c0-.088-.225-.186-.359-.094-.251.173-.114,1.681-1.057,1.463v-2.208c1.32-.133,2.055.114,2.31,1.492l.434-.123v-2.076H13.327l.038.448c.158.222.661-.152.762.476a42.056,42.056,0,0,1-.007,4.859.55.55,0,0,1-.265.353.924.924,0,0,1-.755-.037,11.64,11.64,0,0,1-1.722-2.438l0-.125c2.066-.82,1.422-3.3-.755-3.536M19.39,115.6h3.895a6.926,6.926,0,0,0,.725-.248,1.791,1.791,0,0,0,.031-3.34c.579-.7,1.006-.824.75-1.891a2.087,2.087,0,0,0-1.507-1.234H19.346l.038.448.635.161c.137.1.111.256.129.4a30.993,30.993,0,0,1-.014,4.59c-.149,1.007-1.176.218-.744,1.112m11.286-6.713H25.365l.038.448c.147.207.639-.157.752.486a30.056,30.056,0,0,1,.01,4.414c-.107,1.248-.652.646-.851.917a.334.334,0,0,0,.047.409c.336.232,4.736-.093,5.491.038l.227-2.3c-.368-.535-.85.915-1.02,1.111-.426.489-2.127.716-2.127.262V112.6c.727-.147.907.867.885,1.414h.532v-3.577c-.793-.557-.391,1.834-1.416,1.237v-1.943a1.467,1.467,0,0,1,2.213,1.369l.531-.133Zm4.249,0h-3.5c-.112,0-.191.317-.1.448.147.2.732-.121.844.394a36.828,36.828,0,0,1,.007,4.771c-.1.949-.658.383-.852.652a.377.377,0,0,0,0,.367c.162.229,4.957,0,5.614.069l.279-2.549-.522.01c-.215.8-.44,1.7-1.39,1.837-.379.056-1.163.142-1.306-.271-.37-1.067.157-3.738-.058-4.977.055-.418.669-.1.891-.259Z" transform="translate(0 -95.492)" fill="#fff"/>
      <path id="Path_284" data-name="Path 284" d="M71.134,9.952v2.076l-36.38.133V10.085l-.139-.122-2.542-.008c-.061-.018-.151-.194-.151-.223V.236L46,.28,52.59,9.52c.255.012.467-.3.566-.514.18-.379-.214-.332.374-.436L59.694.236a36.285,36.285,0,0,1,3.788,0C66.372.2,70.644-.212,73.4.143c.148.019.3-.023.393.137V9.82l-.133.133Zm-18.19,1.5H69.939l.133-.133v-2.3l.133-.133h2.39l.133-.132V1.34c-.076-.13-.181-.115-.305-.137a21.72,21.72,0,0,0-3.453.1c-2.87.03-5.745-.077-8.612.055-.2.084-2.3,3.107-2.641,3.555-.487.64-.987,1.285-1.454,1.906-1.144,1.522-2.3,3.077-3.539,4.507-.007.028.193.127.221.132M32.984,1.3v7.6c.086-.026.191.088.221.088h2.611v2.473H52.458a1.433,1.433,0,0,0-.318-.7c-1.369-2.208-3.284-4.533-4.8-6.692-.608-.865-1.13-1.8-1.786-2.634Z" transform="translate(-28.155 -0.001)" fill="#fff"/>
      <path id="Path_285" data-name="Path 285" d="M45.777,180.117v2.915c.086-.027.191.088.221.088h2.346l-.177,9.981-17-.221v-9.848h2.7L34,182.9v-2.738Zm-1.062.707H35.067l-.089,3.268H32.234l-.006,7.822,14.926.044.127-7.778H44.848l-.133-.132Z" transform="translate(-27.493 -158.859)" fill="#fff"/>
      <path id="Path_286" data-name="Path 286" d="M254.939,180.117c.292.252-.184,2.6.221,3h2.434V193.1H240.51l-.089-9.981h2.611l.133-.132v-2.871Zm1.682,4.063h-2.434a1.371,1.371,0,0,1-.221-.309v-3l-9.825.088v3.091l-.133.133h-2.478l.089,7.861h15Z" transform="translate(-212.047 -158.859)" fill="#fff"/>
      <path id="Path_287" data-name="Path 287" d="M180.362,180.117l-4.55,6.278-4.39-6.278Zm-1.859.707h-5.222l2.527,3.714Z" transform="translate(-151.191 -158.859)" fill="#fff"/>
      <path id="Path_288" data-name="Path 288" d="M79.31,119.267c1.986-.387,1.728,3.1-.081,2.242Z" transform="translate(-69.878 -105.165)" fill="#fff"/>
      <path id="Path_289" data-name="Path 289" d="M184.709,143.9c1.565-.4,1.82,2.238.476,2.38-1.011.107-.446-1.738-.476-2.38" transform="translate(-162.794 -126.882)" fill="#fff"/>
      <path id="Path_290" data-name="Path 290" d="M185.672,119.468a1.065,1.065,0,1,1,0,2.12Z" transform="translate(-163.759 -105.365)" fill="#fff"/>
    </g>
    <text id="McKenzie_Special_School_District" data-name="McKenzie Special School District" transform="translate(1617.591 1233.879)" fill="#fff" font-size="15" font-family="Gotham-Bold, Gotham" font-weight="700"><tspan x="0" y="0">McKenzie Special </tspan><tspan x="0" y="18">School District</tspan></text>
  </g>
</svg>
