<svg xmlns="http://www.w3.org/2000/svg" width="210" height="210" viewBox="0 0 210 210">
  <g id="McKenzie_Emblem" data-name="McKenzie Emblem" transform="translate(105 105)">
    <g id="Group_380" data-name="Group 380" transform="translate(-105 -105)">
      <circle id="Ellipse_5" data-name="Ellipse 5" cx="105" cy="105" r="105" transform="translate(0 0)" fill="#fd0f17"/>
      <g id="Group_379" data-name="Group 379" transform="translate(6.178 6.147)">
        <circle id="Ellipse_6" data-name="Ellipse 6" cx="98.838" cy="98.838" r="98.838" fill="#fff"/>
        <g id="Group_377" data-name="Group 377" transform="translate(6.722 6.78)">
          <path id="Path_181" data-name="Path 181" d="M282.964,100.762a20.037,20.037,0,0,0-39.774,0c8.11,3.077,15.152,7.058,19.887,11.743C267.812,107.82,274.854,103.839,282.964,100.762Z" transform="translate(-170.961 -67.015)" fill="#0a2c6f"/>
          <path id="Path_182" data-name="Path 182" d="M153.68,68.907a25.394,25.394,0,0,1,1.245-4.633l-4.342-4.03a19.454,19.454,0,0,1,2.9-5.028l5.637,1.738a25.827,25.827,0,0,1,3.5-3.5l-1.738-5.636a19.422,19.422,0,0,1,5.028-2.9l4.029,4.342a25.426,25.426,0,0,1,4.76-1.273l1.32-5.778a19.464,19.464,0,0,1,5.806,0l1.32,5.778a25.422,25.422,0,0,1,4.761,1.273l4.029-4.342a19.463,19.463,0,0,1,5.028,2.9l-1.738,5.637a25.823,25.823,0,0,1,3.5,3.5l5.636-1.738a19.426,19.426,0,0,1,2.9,5.028l-4.342,4.029a25.373,25.373,0,0,1,1.245,4.633c12.879-4.048,27.6-5.9,39.958-4.838a92.107,92.107,0,0,0-130.413,0C126.076,63,140.8,64.859,153.68,68.907Z" transform="translate(-86.814 -37.015)" fill="#0a2c6f"/>
          <path id="Path_183" data-name="Path 183" d="M534.706,274.635a91.66,91.66,0,0,0-1.445-33.92L520.841,254.5Z" transform="translate(-351.421 -169.41)" fill="#fd0f17"/>
          <path id="Path_184" data-name="Path 184" d="M154.9,147.2c12.72-11.054,44.469-15.878,78.149-6.618a92.523,92.523,0,0,0-6.807-9.513c-.68-.1-1.373-.209-2.088-.328-20.119-3.337-53.213.865-69.253,13.011C138.859,131.6,105.765,127.4,85.646,130.74c-.715.119-1.408.226-2.088.328a92.368,92.368,0,0,0-6.807,9.513C110.429,131.321,142.179,136.145,154.9,147.2Z" transform="translate(-62.784 -97.214)" fill="#460a7f"/>
          <path id="Path_185" data-name="Path 185" d="M193.725,216.9,182.2,229.673v19.734H164.179v-79.85H182.2v36.275L213,172.173q-1.066-2.372-2.259-4.672c-35.509-11.258-67.2-5.65-78.371,3.993h-6.812C114.387,161.851,82.7,156.243,47.19,167.5a91.511,91.511,0,0,0-5.826,13.9L58.99,218.379l23.156-48.823h20.077v39.271c3.739-13.1,14.913-21.362,30.116-21.362,11.749,0,21.1,4.677,26.579,12.891l-11.864,8.556a16.917,16.917,0,0,0-14.03-6.5c-8.556,0-14.6,6.615-14.6,16.426,0,9.925,6.045,16.653,14.6,16.653,6.274,0,11.177-2.395,14.258-7.186l12.092,8.214c-5.134,8.556-14.716,13.574-27.264,13.574-15.017,0-26.155-8.19-29.888-21.133v20.448h-16.2V195.564L64.807,241.308H53.057L36.936,206.553c-.039,1.109-.084,2.215-.084,3.333a92.127,92.127,0,0,0,177.072,35.65Zm-63.834-7.317,2.042-4.585,1.043,4.909,4.991.525-4.347,2.51,1.044,4.909-3.73-3.358L126.588,217l2.042-4.585-3.73-3.358Zm3.085,18.4-1.043,4.909-2.042-4.585-4.991.524,3.73-3.358-2.042-4.585,4.347,2.51,3.73-3.358-1.044,4.909,4.347,2.51ZM149.052,223l-4.773-1.551-2.95,4.061v-5.019l-4.773-1.551,4.773-1.551V212.37l2.95,4.06,4.773-1.551-2.95,4.06Z" transform="translate(-36.852 -117.77)" fill="#fd0f17"/>
        </g>
        <g id="Group_378" data-name="Group 378" transform="translate(21.876 143.158)">
          <path id="Path_186" data-name="Path 186" d="M83.88,449.981a449.088,449.088,0,0,1,88.5,34.965,91.448,91.448,0,0,0,17.959-4.921c-42.086-20.11-78.534-29.5-110.192-35.31Q81.922,447.416,83.88,449.981Z" transform="translate(-80.143 -438.378)" fill="#68b620"/>
          <path id="Path_187" data-name="Path 187" d="M106.528,477.708a435.243,435.243,0,0,1,42.284,22.019,92.356,92.356,0,0,0,19.945,2.19c1.5,0,2.992-.042,4.475-.113a425.282,425.282,0,0,0-75.161-32.952A92.554,92.554,0,0,0,106.528,477.708Z" transform="translate(-91.795 -454.065)" fill="#68b620"/>
          <path id="Path_188" data-name="Path 188" d="M433.534,453.059c6.181-1.649,12.4-3.218,18.518-4.68,1.355-1.793,2.632-3.645,3.855-5.536-11.309,1.767-23.177,3.985-35.089,6.591Q427.075,451.113,433.534,453.059Z" transform="translate(-301.564 -437.161)" fill="#68b620"/>
          <path id="Path_189" data-name="Path 189" d="M339.451,432.288q9.28,1.809,19.038,4.181c15.6-2.745,31.621-5.028,46.041-6.546q.987-1.632,1.9-3.311A570.221,570.221,0,0,0,339.451,432.288Z" transform="translate(-248.68 -426.612)" fill="#68b620"/>
        </g>
        <path id="Path_190" data-name="Path 190" d="M69.289,426.77q1.146,2.084,2.4,4.1c30.776,3.966,66.412,12.92,119.387,34.056a92.278,92.278,0,0,0,22.084-15.406C154.543,429.825,107.9,427.112,69.289,426.77Zm52.189,8.538c-5.837-1.4-11.384-2.66-16.394-3.7,6.084.8,12.814,1.953,19.844,3.339Zm26.089,6.63c-5.523-1.471-11.08-2.915-16.506-4.277l4.573-.483c5.881,1.29,11.845,2.7,17.708,4.15Zm43.454,12.349c-7.324-2.245-16.552-4.94-26.543-7.733l6.347-.671c10.173,2.777,19.337,5.5,26.292,7.759Z" transform="translate(-51.212 -283.556)" fill="#fff"/>
      </g>
    </g>
  </g>
</svg>
