<svg id="Meetings_Events_Icon" data-name="Meetings &amp; Events Icon" xmlns="http://www.w3.org/2000/svg" width="46.817" height="50.83" viewBox="0 0 46.817 50.83">
  <path id="Path_162" data-name="Path 162" d="M36.177,4.236V2.118a2.128,2.128,0,0,0-4.256,0V4.236H14.9V2.118a2.128,2.128,0,0,0-4.256,0V4.236A10.627,10.627,0,0,0,0,14.825V40.24A10.627,10.627,0,0,0,10.64,50.83H36.177A10.627,10.627,0,0,0,46.817,40.24V14.825A10.627,10.627,0,0,0,36.177,4.236M10.64,8.472V10.59a2.128,2.128,0,0,0,4.256,0V8.472H31.921V10.59a2.128,2.128,0,0,0,4.256,0V8.472a6.376,6.376,0,0,1,6.384,6.354v2.118H4.256V14.825A6.376,6.376,0,0,1,10.64,8.472M36.177,46.594H10.64A6.376,6.376,0,0,1,4.256,40.24V21.179h38.3V40.24a6.376,6.376,0,0,1-6.384,6.354" transform="translate(0)" fill="#fff"/>
  <path id="Path_163" data-name="Path 163" d="M121.446,134.583a2.118,2.118,0,1,0,2.128,2.118,2.123,2.123,0,0,0-2.128-2.118" transform="translate(-87.397 -98.579)" fill="#fff"/>
  <path id="Path_164" data-name="Path 164" d="M121.446,102.917a2.118,2.118,0,1,0,2.128,2.118,2.123,2.123,0,0,0-2.128-2.118" transform="translate(-87.397 -75.384)" fill="#fff"/>
  <path id="Path_165" data-name="Path 165" d="M81.673,134.583A2.118,2.118,0,1,0,83.8,136.7a2.123,2.123,0,0,0-2.128-2.118" transform="translate(-58.265 -98.579)" fill="#fff"/>
  <path id="Path_166" data-name="Path 166" d="M81.673,102.917a2.118,2.118,0,1,0,2.128,2.118,2.123,2.123,0,0,0-2.128-2.118" transform="translate(-58.265 -75.384)" fill="#fff"/>
  <path id="Path_167" data-name="Path 167" d="M41.9,134.583a2.118,2.118,0,1,0,2.128,2.118,2.123,2.123,0,0,0-2.128-2.118" transform="translate(-29.132 -98.579)" fill="#fff"/>
  <path id="Path_168" data-name="Path 168" d="M41.9,102.917a2.118,2.118,0,1,0,2.128,2.118,2.123,2.123,0,0,0-2.128-2.118" transform="translate(-29.132 -75.384)" fill="#fff"/>
</svg>
