<svg xmlns="http://www.w3.org/2000/svg" width="31.304" height="20.87" viewBox="0 0 31.304 20.87">
  <g id="Menu" transform="translate(0 -9.13)">
    <path id="Path_1063" data-name="Path 1063" d="M63.478,114.609H41.3a1.3,1.3,0,1,1,0-2.609H63.478a1.3,1.3,0,0,1,0,2.609" transform="translate(-33.478 -93.739)" fill="#fff"/>
    <path id="Path_1064" data-name="Path 1064" d="M30,170.609H1.3A1.3,1.3,0,1,1,1.3,168H30a1.3,1.3,0,1,1,0,2.609" transform="translate(0 -140.609)" fill="#fff"/>
    <path id="Path_1065" data-name="Path 1065" d="M30,58.609H1.3A1.3,1.3,0,0,1,1.3,56H30a1.3,1.3,0,0,1,0,2.609" transform="translate(0 -46.87)" fill="#fff"/>
  </g>
</svg>
