<svg id="Pay_Icon_-_White" data-name="Pay Icon - White" xmlns="http://www.w3.org/2000/svg" width="28.378" height="30" viewBox="0 0 28.378 30">
  <path id="Path_171" data-name="Path 171" d="M626.664,8.022V5.852A3.346,3.346,0,0,0,623.332,2.5H604.875a3.9,3.9,0,0,0,0,7.8h21.172a1.015,1.015,0,0,1,1.011,1.017v4.421h-6.982c-2.137,0-4.048,2.271-4.048,4.421s1.911,4.421,4.048,4.421h6.982v4.571a1.015,1.015,0,0,1-1.011,1.017H604.332a1.015,1.015,0,0,1-1.011-1.017V12.953a1.16,1.16,0,1,0-2.321,0V29.148a3.346,3.346,0,0,0,3.332,3.352h21.715a3.346,3.346,0,0,0,3.332-3.352V11.314a3.351,3.351,0,0,0-2.714-3.292m-19.618-.06h-2.171a1.563,1.563,0,0,1,0-3.127h18.458a1.015,1.015,0,0,1,1.011,1.017v2.11Zm13.029,14.28c-.857,0-1.727-1.224-1.727-2.086s.87-2.086,1.727-2.086h6.982v4.172Z" transform="translate(-601 -2.5)" fill="#fff"/>
  <path id="Path_172" data-name="Path 172" d="M715.51,102.494a2.377,2.377,0,1,0,2.362,2.377,2.372,2.372,0,0,0-2.362-2.377" transform="translate(-696.288 -87.398)" fill="#fff"/>
</svg>
