<svg xmlns="http://www.w3.org/2000/svg" width="21.057" height="21.057" viewBox="0 0 21.057 21.057">
  <path id="Search_-_Gray" data-name="Search - Gray" d="M3854.789,199.177a8.326,8.326,0,0,0,11.369,12.154l.315.315a1.109,1.109,0,0,0,.286,1.072l4.752,4.752a1.11,1.11,0,0,0,1.57-1.57l-4.752-4.752a1.109,1.109,0,0,0-1.072-.287l-.316-.315a8.326,8.326,0,0,0-12.154-11.369m12.548,5.887a6.661,6.661,0,1,1-1.951-4.71,6.617,6.617,0,0,1,1.951,4.71" transform="translate(-3852.35 -196.738)" fill="gray"/>
</svg>
