<svg xmlns="http://www.w3.org/2000/svg" width="105.004" height="36" viewBox="0 0 105.004 36">
  <g id="TCAT_-_McKenzie_Logo" data-name="TCAT - McKenzie Logo" transform="translate(0 0)">
    <path id="Path_380" data-name="Path 380" d="M19.287,0A7.313,7.313,0,0,0,20.4.131c16.3,2.134,21.4,23.5,7.784,32.771C16.73,40.707.567,32.915.063,19.043c-.019-.515.007-1.036,0-1.552,0-.1.039-.27-.062-.334,0-.08-.005-.163,0-.243A18.141,18.141,0,0,1,16.574.057l.1-.056ZM33.393,13.758l-3.646-.278A13.608,13.608,0,0,0,6.715,6.722l1.5,3.284A8.5,8.5,0,0,1,7.21,11.072a13.586,13.586,0,0,0,5.022,21.687,6.68,6.68,0,0,0,1.751.568l2.062-2.96a13.681,13.681,0,0,0,15.337-5.1,13.977,13.977,0,0,0,2.011-11.509" transform="translate(0 -0.001)" fill="#fff"/>
    <path id="Path_381" data-name="Path 381" d="M.068,69.566H.007V67.68c.1.063.061.231.062.334.006.516-.02,1.037,0,1.552" transform="translate(-0.005 -50.524)" fill="#fff"/>
    <path id="Path_382" data-name="Path 382" d="M371.427,14.547v.061l-.8,4.311-4.369.011-2.041,11.495h-4.836l1.947-11.5h-4.441l.831-4.444Z" transform="translate(-266.422 -10.812)" fill="#fff"/>
    <path id="Path_383" data-name="Path 383" d="M244.689,14.231l-.718,5.159a5.745,5.745,0,0,0-3.2-1.879,4.785,4.785,0,0,0-5.406,3.218c-.728,2.71,1.03,4.253,3.652,4.078a6.721,6.721,0,0,0,3.247-1.255c.116-.072.864-.631.917-.572L242.5,27.8c-.1.393-.791.67-1.16.847a9.042,9.042,0,0,1-7.34.262c-5.292-2.141-5.289-8.862-1.888-12.715,2.969-3.363,8.788-4.751,12.582-1.963" transform="translate(-171.514 -9.511)" fill="#fff"/>
    <path id="Path_384" data-name="Path 384" d="M303.006,29.179h-5.384l-.8-2.06-4.011-.012-.178.065-1.4,2.007h-5.627l11.5-16.365Zm-6.388-5.658-.792-2.981-1.763,2.981Z" transform="translate(-213.211 -9.566)" fill="#fff"/>
    <path id="Path_385" data-name="Path 385" d="M186.086,14.493l-.733,4.438-4.384.039-2.031,11.463h-4.806l1.855-11.5h-4.38l.821-4.441Z" transform="translate(-128.108 -10.819)" fill="#fff"/>
    <path id="Path_386" data-name="Path 386" d="M178.229,100.413l2.008,4.684,1.976-4.684h1.49v7.179h-1.46v-3.833l-1.649,3.886-.632-.053-1.855-3.955v3.954h-1.46v-7.179Z" transform="translate(-131.87 -74.96)" fill="#fff"/>
    <path id="Path_387" data-name="Path 387" d="M291.269,100.413l2.859,4.38v-4.38h1.46v7.179H294.28l-3.133-4.684v4.684h-1.46v-7.179Z" transform="translate(-216.256 -74.96)" fill="#fff"/>
    <path id="Path_388" data-name="Path 388" d="M238.408,100.413v2.677l2.707-2.677h1.734l-2.737,2.827,2.858,4.351h-1.612l-2.281-3.317a3.442,3.442,0,0,0-.67.61v2.707h-1.521v-7.179Z" transform="translate(-176.84 -74.96)" fill="#fff"/>
    <path id="Path_389" data-name="Path 389" d="M269.475,100.413v1.278h-3.468v1.7h2.859v1.278h-2.859v1.643h3.711v1.278h-5.232v-7.179Z" transform="translate(-197.444 -74.96)" fill="#fff"/>
    <path id="Path_390" data-name="Path 390" d="M361.4,100.413v1.278h-3.468v1.7h2.859v1.278h-2.859v1.643h3.711v1.278h-5.232v-7.179Z" transform="translate(-266.064 -74.96)" fill="#fff"/>
    <path id="Path_391" data-name="Path 391" d="M323,100.413V101.6l-3.589,4.715h3.65v1.278h-5.536v-1.186l3.65-4.715h-3.346v-1.278Z" transform="translate(-237.04 -74.96)" fill="#fff"/>
    <path id="Path_392" data-name="Path 392" d="M215.357,101.386l-1.112.55c-.371-.538-.664-1.037-1.405-1.034-2.049.01-2.271,4.035-.578,4.78a1.464,1.464,0,0,0,1.621-.235c.141-.135.347-.623.524-.577a7.652,7.652,0,0,1,1.023.638,2.738,2.738,0,0,1-3.015,1.6c-3.956-.368-3.807-8.026.9-7.475a2.371,2.371,0,0,1,2.037,1.75" transform="translate(-156.474 -74.359)" fill="#fff"/>
    <rect id="Rectangle_187" data-name="Rectangle 187" width="1.521" height="7.179" transform="translate(87.24 25.453)" fill="#fff"/>
    <path id="Path_393" data-name="Path 393" d="M38.44,28.081A10.884,10.884,0,1,1,30.251,45.3,10.908,10.908,0,0,1,38.44,28.081m-3.334,2.6c-.16-.018-.1,0-.122.089-.268.886-.436,1.809-.674,2.7L31.4,33.66l2.437,1.623L33.161,38.1l2.229-1.816L37.905,37.8,36.867,35.04l2.194-1.866-2.923.154Zm12.411,4.5-2.576,1.267-2.107-2,.416,2.88c-.735.512-1.647.82-2.406,1.3-.061.039-.108-.006-.078.136l2.856.368.49,2.917,1.337-2.587,2.86.336c-.176-.324-2-1.892-2.009-2.04-.029-.3,1.32-2.483,1.218-2.583m-6.448,9.308-2.649-.972.093-2.922-1.869,2.242-2.724-.963,1.55,2.463-1.761,2.312,2.818-.755,1.682,2.427.128-2.975,2.646-.73c.1.028.118-.093.085-.126" transform="translate(-21.052 -20.945)" fill="#fff"/>
  </g>
</svg>
