<svg id="Utility_Payments_Icon" data-name="Utility Payments Icon" xmlns="http://www.w3.org/2000/svg" width="46.817" height="49.492" viewBox="0 0 46.817 49.492">
  <path id="Path_171" data-name="Path 171" d="M643.339,11.61V8.031a5.52,5.52,0,0,0-5.5-5.531h-30.45a6.432,6.432,0,0,0,0,12.863H642.32a1.675,1.675,0,0,1,1.668,1.678v7.294H632.469c-3.525,0-6.678,3.747-6.678,7.293s3.153,7.293,6.678,7.293h11.519v7.541a1.675,1.675,0,0,1-1.668,1.678H606.5a1.675,1.675,0,0,1-1.668-1.678V19.745a1.914,1.914,0,1,0-3.829,0V46.462a5.52,5.52,0,0,0,5.5,5.53H642.32a5.52,5.52,0,0,0,5.5-5.53V17.041a5.528,5.528,0,0,0-4.478-5.431m-32.364-.1h-3.582a2.579,2.579,0,0,1,0-5.158h30.45a1.675,1.675,0,0,1,1.668,1.678v3.48Zm21.494,23.558c-1.414,0-2.849-2.019-2.849-3.441s1.436-3.441,2.849-3.441h11.519v6.882Z" transform="translate(-601 -2.5)" fill="#fff"/>
  <path id="Path_172" data-name="Path 172" d="M715.51,102.494a2.377,2.377,0,1,0,2.362,2.377,2.372,2.372,0,0,0-2.362-2.377" transform="translate(-683.146 -75.743)" fill="#fff"/>
</svg>
